<?xml version="1.0" encoding="utf-8"?>
<!-- Generator: Adobe Illustrator 22.0.1, SVG Export Plug-In . SVG Version: 6.00 Build 0)  -->
<svg version="1.1" id="Layer_1" xmlns="http://www.w3.org/2000/svg" xmlns:xlink="http://www.w3.org/1999/xlink" x="0px" y="0px"
	 viewBox="0 0 288 288" style="enable-background:new 0 0 288 288;" xml:space="preserve">
<style type="text/css">
	.st0{fill:#231F20;}
	.st1{fill:#FFFFFF;}
	.st2{fill:#CC0000;}
</style>
<g>
	<g>
		<path class="st0" d="M46.1,137.1c-2.2,0-4-1.8-4-4V35.9H8c-2.2,0-4-1.8-4-4V8c0-2.2,1.8-4,4-4h104.5c2.2,0,4,1.8,4,4v23.9
			c0,2.2-1.8,4-4,4H78.3v97.1c0,2.2-1.8,4-4,4H46.1z"/>
		<path class="st1" d="M112.5,8v23.9H74.3v101.1H46.1V31.9H8V8H112.5 M112.5,0H8C3.6,0,0,3.6,0,8v23.9c0,4.4,3.6,8,8,8h30.1v93.1
			c0,4.4,3.6,8,8,8h28.2c4.4,0,8-3.6,8-8V39.9h30.2c4.4,0,8-3.6,8-8V8C120.5,3.6,117,0,112.5,0L112.5,0z"/>
	</g>
	<g>
		<path class="st0" d="M65.4,284c-10.6,0-21.1-1.9-31.2-5.6C24,274.7,15,269.5,7.5,263c-1.4-1.2-1.8-3.1-1-4.8l11.3-23
			c0.6-1.1,1.6-1.9,2.8-2.2c0.3,0,0.5-0.1,0.8-0.1c1,0,1.9,0.4,2.7,1c6,5.4,12.9,9.8,20.7,13c7.7,3.2,14.7,4.9,21,4.9
			c5,0,8.9-0.9,11.5-2.6c2.1-1.4,3.1-3.2,3.1-5.9c0-2.1-0.7-3.7-2.1-5.1c-1.8-1.7-4.2-3.2-7.1-4.3c-3.2-1.3-7.7-2.7-13.7-4.4
			c-8.7-2.4-15.9-4.9-21.5-7.3c-6-2.6-11.2-6.7-15.5-12.1c-4.5-5.6-6.8-13-6.8-22c0-8.3,2.3-15.8,6.8-22.1
			c4.5-6.2,10.7-11.1,18.7-14.4c7.7-3.2,16.8-4.9,26.9-4.9c8.9,0,17.8,1.3,26.5,3.9c8.7,2.6,16.5,6.1,23.2,10.5
			c1.7,1.1,2.3,3.2,1.5,5l-10.9,23.4c-0.5,1-1.4,1.8-2.5,2.1c-0.4,0.1-0.8,0.2-1.2,0.2c-0.7,0-1.5-0.2-2.1-0.6
			c-6.1-3.7-12.7-6.8-19.6-9c-6.8-2.2-12.6-3.3-17.3-3.3c-4.1,0-7.3,0.7-9.5,2.1c-1.7,1.1-2.4,2.4-2.4,4.5c0,3,1.3,5,4.1,6.6
			c3.8,2.2,9.9,4.5,18.2,6.9c8.7,2.5,16,5.1,21.7,7.7c6.1,2.8,11.4,6.9,15.7,12.4c4.5,5.7,6.8,13.2,6.8,22.3c0,8.8-2.4,16.5-7.1,23
			c-4.6,6.4-11.1,11.2-19.2,14.5C84.2,282.4,75.2,284,65.4,284z"/>
		<path class="st1" d="M66.1,151c8.6,0,17,1.3,25.4,3.8c8.3,2.5,15.7,5.8,22.2,10l-10.9,23.4c-6.4-3.9-13.2-7.1-20.5-9.4
			c-7.2-2.3-13.4-3.5-18.5-3.5c-4.9,0-8.8,0.9-11.6,2.7c-2.9,1.8-4.3,4.4-4.3,7.9c0,4.4,2.1,7.8,6.2,10.1c4.1,2.3,10.5,4.7,19,7.2
			s15.6,5,21.2,7.5c5.5,2.5,10.3,6.3,14.2,11.3c3.9,5,5.9,11.6,5.9,19.8c0,8-2.1,14.9-6.4,20.6c-4.2,5.8-10,10.2-17.4,13.1
			c-7.4,3-15.8,4.5-25.2,4.5c-10.1,0-20.1-1.8-29.8-5.4c-9.8-3.6-18.2-8.5-25.4-14.7l11.3-23c6.3,5.7,13.6,10.3,21.8,13.8
			c8.2,3.5,15.7,5.2,22.5,5.2c5.8,0,10.4-1.1,13.7-3.2c3.3-2.2,4.9-5.2,4.9-9.3c0-3.2-1.1-5.9-3.3-8c-2.2-2.1-5-3.8-8.4-5.1
			c-3.4-1.3-8.1-2.8-14-4.5c-8.6-2.4-15.6-4.8-21-7.1c-5.4-2.4-10.1-6-14-10.9c-3.9-4.9-5.9-11.4-5.9-19.5c0-7.5,2-14.1,6.1-19.7
			c4-5.7,9.7-10,17-13C48,152.5,56.4,151,66.1,151 M66.1,143c-10.7,0-20.3,1.7-28.5,5.2c-8.6,3.6-15.5,8.9-20.4,15.8
			c-5,7-7.6,15.2-7.6,24.4c0,9.9,2.6,18.2,7.7,24.5c4.7,5.9,10.5,10.3,17,13.2c5.8,2.5,13.2,5.1,22.1,7.5c5.8,1.6,10.2,3,13.2,4.2
			c2.4,0.9,4.4,2.1,5.8,3.5c0.4,0.4,0.8,0.8,0.8,2.1c0,1.5-0.4,2-1.3,2.6c-1.3,0.9-4,1.9-9.3,1.9c-5.7,0-12.2-1.5-19.4-4.6
			c-7.3-3.1-13.9-7.2-19.5-12.3c-1.5-1.3-3.4-2.1-5.4-2.1c-0.5,0-1,0-1.5,0.1c-2.5,0.5-4.6,2.1-5.7,4.3L3,256.5
			c-1.6,3.3-0.8,7.2,1.9,9.6c7.8,6.8,17.2,12.2,27.9,16.1c10.6,3.9,21.6,5.9,32.6,5.9c10.4,0,19.9-1.7,28.2-5.1
			c8.8-3.5,15.8-8.9,20.9-15.8c5.2-7.1,7.9-15.7,7.9-25.3c0-10-2.6-18.3-7.6-24.8c-4.7-6-10.5-10.6-17.2-13.6
			c-5.9-2.6-13.3-5.3-22.2-7.9c-7.9-2.3-13.8-4.5-17.3-6.5c-1.9-1.1-2.1-2-2.1-3.1c0-0.8,0.1-0.8,0.5-1.1c1.1-0.7,3.2-1.5,7.4-1.5
			c4.2,0,9.7,1,16.1,3.1c6.6,2.1,12.9,5,18.7,8.6c1.3,0.8,2.7,1.2,4.2,1.2c0.8,0,1.6-0.1,2.3-0.3c2.2-0.7,4-2.2,4.9-4.3l10.9-23.4
			c1.7-3.6,0.4-7.9-2.9-10.1c-7-4.6-15.2-8.2-24.2-11C84.7,144.4,75.4,143,66.1,143L66.1,143z"/>
	</g>
	<g>
		<path class="st2" d="M199,250c-14.4,0-28.9-2.2-43.1-6.7c-14.3-4.4-26.6-10.4-36.5-17.7c-1.6-1.2-2.1-3.3-1.2-5.1l17.6-33.7
			c0.6-1.1,1.6-1.8,2.8-2.1c0.3-0.1,0.5-0.1,0.8-0.1c0.9,0,1.8,0.3,2.6,0.9c7.9,6.6,16.5,11.7,25.6,15.2c9.1,3.5,18.5,5.2,28,5.2
			c11.7,0,20.8-2.3,27-6.9c5.9-4.3,8.7-10.2,8.7-18c0-7.7-2.8-13.3-8.6-17.3c-6.2-4.2-15.5-6.4-27.4-6.4h-32.6c-2.2,0-4-1.8-4-4
			v-25.9c0-1.1,0.4-2.1,1.2-2.9l43.3-41.8h-71.1c-2.2,0-4-1.8-4-4L127.9,42c0-1.1,0.4-2.1,1.2-2.8c0.8-0.8,1.8-1.2,2.8-1.2h138
			c2.2,0,4,1.8,4,4v27.4c0,1.1-0.5,2.2-1.3,2.9l-52.1,49l2.1,0.3c18.4,2.4,33.3,8.7,44.4,18.9c11.3,10.3,17,23.9,17,40.4
			c0,13.4-3.6,25.6-10.6,36.1c-7,10.5-17.1,18.7-29.9,24.5C230.8,247.1,215.8,250,199,250z"/>
		<path class="st1" d="M269.9,42v27.4l-58.2,54.7l10.4,1.5c17.7,2.3,31.7,8.3,42.2,17.9c10.5,9.6,15.7,22.1,15.7,37.5
			c0,12.7-3.3,24-9.9,33.9c-6.6,9.9-16,17.6-28.2,23.1c-12.2,5.5-26.5,8.2-42.8,8.2c-14,0-28-2.2-41.9-6.5
			c-13.9-4.3-25.7-10-35.3-17.1l17.6-33.7c8.3,6.9,17.2,12.2,26.8,15.9c9.6,3.6,19.4,5.5,29.4,5.5c12.7,0,22.5-2.5,29.4-7.6
			c6.9-5.1,10.4-12.2,10.4-21.2c0-9-3.5-15.9-10.4-20.6c-6.9-4.7-16.8-7.1-29.7-7.1h-32.6v-25.9l50.4-48.7h-81L131.9,42H269.9
			 M269.9,34h-138c-2.1,0-4.2,0.9-5.7,2.4c-1.5,1.5-2.3,3.6-2.3,5.7l0.3,36.9c0,4.4,3.6,7.9,8,7.9h61.2l-36.2,34.9
			c-1.6,1.5-2.4,3.6-2.4,5.8v25.9c0,4.4,3.6,8,8,8h32.6c11.2,0,19.6,1.9,25.2,5.7c4.7,3.2,6.9,7.6,6.9,14c0,6.5-2.3,11.2-7.1,14.7
			c-5.5,4-13.8,6.1-24.6,6.1c-9,0-17.9-1.7-26.6-4.9c-8.7-3.3-16.9-8.2-24.5-14.5c-1.5-1.2-3.3-1.9-5.1-1.9c-0.5,0-1,0.1-1.6,0.2
			c-2.4,0.5-4.4,2-5.5,4.1l-17.6,33.7c-1.8,3.5-0.8,7.8,2.3,10.1c10.3,7.6,23,13.8,37.7,18.4c14.6,4.5,29.5,6.8,44.3,6.8
			c17.4,0,32.9-3,46.1-8.9c13.5-6.1,24.2-14.8,31.6-25.9c7.5-11.2,11.3-24.1,11.3-38.3c0-17.6-6.2-32.2-18.3-43.4
			c-10.4-9.5-24-15.9-40.5-18.9l46.1-43.4c1.6-1.5,2.5-3.6,2.5-5.8V42C277.9,37.6,274.3,34,269.9,34L269.9,34z"/>
	</g>
</g>
</svg>
