<?xml version="1.0" encoding="utf-8"?>
<!-- Generator: Adobe Illustrator 22.0.1, SVG Export Plug-In . SVG Version: 6.00 Build 0)  -->
<svg version="1.1" id="Layer_1" xmlns="http://www.w3.org/2000/svg" xmlns:xlink="http://www.w3.org/1999/xlink" x="0px" y="0px"
	 viewBox="0 0 288 288" style="enable-background:new 0 0 288 288;" xml:space="preserve">
<style type="text/css">
	.st0{fill:#231F20;}
	.st1{fill:#CC0000;}
</style>
<g>
	<path class="st0" d="M0,0h110.6865v25.3583H70.1933v107.0836H40.3084V25.3583H0V0z"/>
	<path class="st0" d="M78.6153,180.8086c-7.6367-2.4481-14.1649-3.6798-19.5845-3.6798c-5.1733,0-9.2688,0.9392-12.3019,2.833
		c-3.0177,1.8938-4.5266,4.6652-4.5266,8.3296c0,4.6652,2.1709,8.2218,6.5128,10.6853c4.3573,2.4635,11.0702,5.0193,20.1542,7.6675
		s16.5514,5.2964,22.4175,7.9447c5.8661,2.6482,10.8854,6.6206,15.0425,11.917c4.1571,5.2964,6.251,12.3019,6.251,21.001
		c0,8.4528-2.2479,15.7354-6.7283,21.8479c-4.465,6.1278-10.6237,10.7622-18.4452,13.9032C79.5853,286.4142,70.7014,288,60.7398,288
		c-10.7315,0-21.2628-1.8938-31.5939-5.6814c-10.3465-3.7876-19.3074-8.9608-26.8671-15.5198l11.917-24.4037
		c6.6821,6.0509,14.3805,10.9162,23.0796,14.5652c8.6991,3.6644,16.6438,5.4966,23.834,5.4966
		c6.1894,0,11.0086-1.1393,14.4728-3.4026c3.4796-2.2787,5.2041-5.5582,5.2041-9.8385c0-3.418-1.1702-6.2202-3.495-8.422
		c-2.3403-2.2017-5.2964-4.0031-8.8993-5.3888c-3.5874-1.4011-8.5451-2.9715-14.8424-4.7422
		c-9.084-2.5097-16.4898-5.0347-22.2328-7.5598c-5.7429-2.5251-10.6853-6.3742-14.8578-11.5475
		c-4.1571-5.1733-6.2356-12.0402-6.2356-20.6161c0-7.9447,2.1401-14.9194,6.4358-20.9086
		c4.2803-5.9893,10.2696-10.5929,17.9679-13.8108s16.6438-4.8192,26.8671-4.8192c9.084,0,18.0295,1.3241,26.8671,3.9723
		c8.8223,2.6482,16.6438,6.1741,23.4645,10.5929l-11.5475,24.7886C93.473,186.5823,86.252,183.272,78.6153,180.8086z"/>
	<path class="st1" d="M271.3837,143.3869C282.4765,153.5629,288,166.7872,288,183.0482c0,13.4305-3.5066,25.3828-10.5198,35.8568
		c-7.0132,10.474-16.983,18.6102-29.8864,24.4087C234.6675,249.1008,219.5639,252,202.283,252
		c-14.8515,0-29.6572-2.2804-44.3941-6.8642c-14.7598-4.5723-27.2048-10.6229-37.3809-18.1518l18.6102-35.6963
		c8.7551,7.3226,18.1977,12.9263,28.3737,16.7882c10.176,3.8618,20.5354,5.787,31.124,5.787c13.4305,0,23.7899-2.693,31.124-8.0789
		c7.3112-5.386,10.9782-12.869,10.9782-22.4262s-3.667-16.834-10.9782-21.8189c-7.3341-4.9734-17.808-7.4716-31.4219-7.4716
		h-34.4931v-27.4569l53.4012-51.5677h-85.7399L131.1883,36h146.1315v28.9811l-61.6292,57.9621l11.0011,1.5356
		C245.3936,126.9196,260.291,133.2224,271.3837,143.3869z"/>
</g>
</svg>
