<?xml version="1.0" encoding="utf-8"?>
<!-- Generator: Adobe Illustrator 22.0.1, SVG Export Plug-In . SVG Version: 6.00 Build 0)  -->
<svg version="1.1" id="Layer_1" xmlns="http://www.w3.org/2000/svg" xmlns:xlink="http://www.w3.org/1999/xlink" x="0px" y="0px"
	 viewBox="0 0 144 30" style="enable-background:new 0 0 144 30;" xml:space="preserve">
<style type="text/css">
	.st0{fill:#FFFFFF;}
	.st1{fill:#CC0000;}
</style>
<g>
	<path class="st0" d="M0,0.2147h11.4327v2.6192H7.2502v11.0605H4.1634V2.8339H0V0.2147z"/>
	<path class="st0" d="M13.0929,0.2147h10.4165v2.5604h-7.3281v2.9707h6.5854v2.5604h-6.5854v3.0279h7.5428v2.5604H13.0929V0.2147z"
		/>
	<path class="st0" d="M34.4029,3.1758c-0.6329-0.3197-1.2675-0.4787-1.9052-0.4787c-0.7697,0-1.4726,0.1892-2.1103,0.5661
		c-0.6393,0.3785-1.1402,0.8937-1.506,1.5442c-0.3642,0.652-0.5471,1.374-0.5471,2.1692s0.1829,1.5219,0.5471,2.1787
		c0.3658,0.6584,0.8667,1.18,1.506,1.5633c0.6377,0.3849,1.3406,0.5773,2.1103,0.5773c0.6123,0,1.2341-0.1463,1.8654-0.4405
		c0.6329-0.2926,1.1959-0.687,1.6905-1.1816l1.8177,1.9736c-0.7299,0.7554-1.5855,1.3549-2.5699,1.797
		c-0.9844,0.4437-1.9704,0.6647-2.9611,0.6647c-1.3406,0-2.5588-0.3085-3.6529-0.9287c-1.0957-0.6186-1.9545-1.4678-2.5795-2.5492
		c-0.6266-1.0814-0.9383-2.2869-0.9383-3.6148c0-1.3168,0.3181-2.5079,0.9574-3.5766c0.6377-1.0687,1.514-1.9084,2.6288-2.5206
		C29.869,0.3069,31.1031,0,32.458,0c0.9908,0,1.9672,0.2051,2.9309,0.6154c0.9653,0.4103,1.7859,0.9685,2.4634,1.6714
		l-1.7986,2.2073C35.5845,3.9344,35.0343,3.4955,34.4029,3.1758z"/>
	<path class="st0" d="M39.7082,0.2147h3.0884v5.706h6.1942v-5.706h3.0868v13.6798h-3.0868V8.5017h-6.1942v5.3927h-3.0884V0.2147z"/>
	<path class="st0" d="M64.5455,0.2147h2.9309v13.6798h-2.8148L58.038,5.1001v8.7944h-2.9516V0.2147h2.8148l6.6443,8.8341V0.2147z"/>
	<path class="st0" d="M70.4852,0.2147h3.0884v13.6798h-3.0884V0.2147z"/>
	<path class="st0" d="M84.8584,3.1758c-0.6329-0.3197-1.2675-0.4787-1.9052-0.4787c-0.7697,0-1.4726,0.1892-2.1103,0.5661
		c-0.6393,0.3785-1.1402,0.8937-1.506,1.5442c-0.3642,0.652-0.5471,1.374-0.5471,2.1692s0.1829,1.5219,0.5471,2.1787
		c0.3658,0.6584,0.8667,1.18,1.506,1.5633c0.6377,0.3849,1.3406,0.5773,2.1103,0.5773c0.6123,0,1.2341-0.1463,1.8654-0.4405
		c0.6329-0.2926,1.1959-0.687,1.6905-1.1816l1.8177,1.9736c-0.7299,0.7554-1.5855,1.3549-2.5699,1.797
		c-0.9844,0.4437-1.9704,0.6647-2.9611,0.6647c-1.3406,0-2.5588-0.3085-3.6529-0.9287c-1.0957-0.6186-1.9545-1.4678-2.5795-2.5492
		c-0.6266-1.0814-0.9383-2.2869-0.9383-3.6148c0-1.3168,0.3181-2.5079,0.9574-3.5766c0.6377-1.0687,1.514-1.9084,2.6288-2.5206
		C80.3244,0.3069,81.5585,0,82.9134,0c0.9908,0,1.9672,0.2051,2.9309,0.6154c0.9653,0.4103,1.7859,0.9685,2.4634,1.6714
		l-1.7986,2.2073C86.04,3.9344,85.4897,3.4955,84.8584,3.1758z"/>
	<path class="st0" d="M100.13,13.8944l-1.075-2.6574h-6.331l-1.075,2.6574h-3.1854l5.9414-13.6798h3.1854l5.8428,13.6798H100.13z
		 M93.7402,8.7546h4.3193l-2.1501-5.3148L93.7402,8.7546z"/>
	<path class="st0" d="M104.858,0.2147h3.0884v10.9826h5.8603v2.6971h-8.9486V0.2147z"/>
	<path class="st0" d="M8.1201,18.8902c-0.7888-0.2529-1.4631-0.3801-2.0229-0.3801c-0.5343,0-0.9574,0.097-1.2706,0.2926
		c-0.3117,0.1956-0.4675,0.4819-0.4675,0.8604c0,0.4819,0.2242,0.8492,0.6727,1.1037c0.4501,0.2544,1.1434,0.5184,2.0817,0.792
		c0.9383,0.2735,1.7096,0.5471,2.3155,0.8206c0.6059,0.2735,1.1243,0.6838,1.5537,1.2309c0.4294,0.5471,0.6457,1.2706,0.6457,2.1692
		c0,0.8731-0.2322,1.6253-0.695,2.2566c-0.4612,0.6329-1.0973,1.1116-1.9052,1.436c-0.8079,0.326-1.7255,0.4898-2.7544,0.4898
		c-1.1084,0-2.1962-0.1956-3.2633-0.5868c-1.0687-0.3912-1.9942-0.9256-2.7751-1.603l1.2309-2.5206
		c0.6902,0.625,1.4853,1.1275,2.3839,1.5044c0.8985,0.3785,1.7191,0.5677,2.4618,0.5677c0.6393,0,1.1371-0.1177,1.4949-0.3515
		c0.3594-0.2354,0.5375-0.5741,0.5375-1.0162c0-0.353-0.1209-0.6425-0.361-0.8699c-0.2417-0.2274-0.5471-0.4135-0.9192-0.5566
		c-0.3705-0.1447-0.8826-0.3069-1.533-0.4898c-0.9383-0.2592-1.7032-0.52-2.2964-0.7808S2.131,22.6003,1.7,22.066
		c-0.4294-0.5343-0.6441-1.2436-0.6441-2.1294c0-0.8206,0.2211-1.541,0.6647-2.1596c0.4421-0.6186,1.0607-1.0941,1.8559-1.4265
		s1.7191-0.4978,2.7751-0.4978c0.9383,0,1.8622,0.1368,2.7751,0.4103c0.9112,0.2735,1.7191,0.6377,2.4236,1.0941l-1.1927,2.5604
		C9.6547,19.4865,8.9089,19.1446,8.1201,18.8902z"/>
	<path class="st0" d="M13.7958,16.1056h3.0884v5.706h6.1942v-5.706h3.0868v13.6798h-3.0868v-5.3927h-6.1942v5.3927h-3.0884V16.1056z
		"/>
	<path class="st0" d="M39.2772,16.8101c1.1212,0.6123,2.0038,1.4551,2.6478,2.5302c0.6457,1.075,0.9669,2.2709,0.9669,3.5861
		s-0.3212,2.5143-0.9669,3.5957c-0.6441,1.0814-1.5267,1.9306-2.6478,2.5492C38.156,29.6915,36.9124,30,35.5448,30
		s-2.6113-0.3085-3.7324-0.9287c-1.1212-0.6186-2.0022-1.4647-2.6478-2.5397c-0.6441-1.075-0.9669-2.2773-0.9669-3.6052
		c0-1.3152,0.3228-2.5111,0.9669-3.5861c0.6457-1.075,1.5235-1.9179,2.6383-2.5302c1.1132-0.6123,2.3616-0.9192,3.742-0.9192
		C36.9124,15.8909,38.156,16.1978,39.2772,16.8101z M33.4742,19.1637c-0.652,0.3849-1.1673,0.9097-1.5442,1.5744
		c-0.3785,0.6632-0.5677,1.3931-0.5677,2.1883c0,0.8079,0.1924,1.5442,0.5773,2.2073c0.3833,0.6647,0.8985,1.1927,1.5442,1.5839
		c0.6441,0.3912,1.3438,0.5852,2.1008,0.5852c0.7554,0,1.4488-0.1908,2.0801-0.5757c0.6329-0.3849,1.1339-0.9112,1.5044-1.5823
		c0.3721-0.6711,0.5582-1.4106,0.5582-2.2185c0-0.7952-0.1861-1.5251-0.5582-2.1883c-0.3705-0.6647-0.8715-1.1895-1.5044-1.5744
		c-0.6313-0.3833-1.3247-0.5757-2.0801-0.5757C34.8276,18.588,34.1246,18.7804,33.4742,19.1637z"/>
	<path class="st0" d="M61.4174,16.1056h3.1854l-4.631,13.6798h-3.1854l-2.8721-9.8678l-2.9118,9.8678h-3.1663l-4.6119-13.6798
		h3.3221l2.9707,10.4355l2.95-10.4355h3.0295l2.9898,10.4355L61.4174,16.1056z"/>
	<path class="st0" d="M74.1302,19.0667c-0.6329-0.3196-1.2675-0.4787-1.9052-0.4787c-0.7697,0-1.4726,0.1892-2.1103,0.5661
		c-0.6393,0.3785-1.1402,0.8937-1.506,1.5442c-0.3642,0.652-0.5471,1.374-0.5471,2.1692c0,0.7952,0.1829,1.5219,0.5471,2.1787
		c0.3658,0.6584,0.8667,1.18,1.506,1.5633c0.6377,0.3849,1.3406,0.5773,2.1103,0.5773c0.6123,0,1.2341-0.1463,1.8654-0.4405
		c0.6329-0.2926,1.1959-0.687,1.6905-1.1816l1.8177,1.9736c-0.7299,0.7554-1.5855,1.3549-2.5699,1.797
		C74.0443,29.7789,73.0583,30,72.0676,30c-1.3406,0-2.5588-0.3085-3.6529-0.9287c-1.0957-0.6186-1.9545-1.4678-2.5795-2.5492
		c-0.6266-1.0814-0.9383-2.2869-0.9383-3.6147c0-1.3168,0.3181-2.5079,0.9574-3.5766c0.6377-1.0687,1.514-1.9084,2.6288-2.5206
		c1.1132-0.6123,2.3473-0.9192,3.7022-0.9192c0.9908,0,1.9672,0.2051,2.9309,0.6154c0.9653,0.4103,1.7859,0.9685,2.4634,1.6714
		l-1.7986,2.2073C75.3118,19.8253,74.7616,19.3863,74.1302,19.0667z"/>
	<path class="st0" d="M89.4018,29.7853l-1.075-2.6574h-6.331l-1.075,2.6574h-3.1854l5.9414-13.6798h3.1854l5.8428,13.6798H89.4018z
		 M83.012,24.6455h4.3193l-2.1501-5.3148L83.012,24.6455z"/>
	<path class="st0" d="M100.8234,18.8902c-0.7888-0.2529-1.4631-0.3801-2.0229-0.3801c-0.5343,0-0.9574,0.097-1.2706,0.2926
		c-0.3117,0.1956-0.4676,0.4819-0.4676,0.8604c0,0.4819,0.2242,0.8492,0.6727,1.1037c0.4501,0.2544,1.1434,0.5184,2.0817,0.792
		c0.9383,0.2735,1.7096,0.5471,2.3155,0.8206c0.6059,0.2735,1.1243,0.6838,1.5537,1.2309c0.4294,0.5471,0.6457,1.2706,0.6457,2.1692
		c0,0.8731-0.2322,1.6253-0.695,2.2566c-0.4612,0.6329-1.0973,1.1116-1.9052,1.436c-0.8079,0.326-1.7255,0.4898-2.7544,0.4898
		c-1.1084,0-2.1962-0.1956-3.2633-0.5868c-1.0687-0.3912-1.9942-0.9256-2.7751-1.603l1.2309-2.5206
		c0.6902,0.625,1.4853,1.1275,2.3839,1.5044c0.8985,0.3785,1.7191,0.5677,2.4618,0.5677c0.6393,0,1.1371-0.1177,1.4949-0.3515
		c0.3594-0.2354,0.5375-0.5741,0.5375-1.0162c0-0.353-0.1209-0.6425-0.361-0.8699c-0.2417-0.2274-0.5471-0.4135-0.9192-0.5566
		c-0.3705-0.1447-0.8826-0.3069-1.5331-0.4898c-0.9383-0.2592-1.7032-0.52-2.2964-0.7808
		c-0.5932-0.2608-1.1037-0.6584-1.5346-1.1927c-0.4294-0.5343-0.6441-1.2436-0.6441-2.1294c0-0.8206,0.2211-1.541,0.6647-2.1596
		c0.4421-0.6186,1.0607-1.0941,1.8559-1.4265s1.7191-0.4978,2.7751-0.4978c0.9383,0,1.8622,0.1368,2.7751,0.4103
		c0.9112,0.2735,1.7191,0.6377,2.4236,1.0941l-1.1927,2.5604C102.358,19.4865,101.6122,19.1446,100.8234,18.8902z"/>
	<path class="st0" d="M106.4992,16.1056h10.4181v2.5604h-7.3281v2.9707h6.5838v2.5604h-6.5838v3.0279h7.538v2.5604h-10.628V16.1056z
		"/>
	<path class="st1" d="M141.6941,14.9271c1.5394,1.4122,2.3059,3.2474,2.3059,5.504c0,1.8638-0.4866,3.5225-1.4599,4.976
		c-0.9733,1.4535-2.3568,2.5826-4.1475,3.3873C136.5988,29.5977,134.5027,30,132.1046,30c-2.061,0-4.1157-0.3165-6.1608-0.9526
		c-2.0483-0.6345-3.7754-1.4742-5.1876-2.519l2.5826-4.9538c1.215,1.0162,2.5254,1.7939,3.9376,2.3298s2.8498,0.8031,4.3193,0.8031
		c1.8638,0,3.3015-0.3737,4.3192-1.1212c1.0146-0.7474,1.5235-1.7859,1.5235-3.1122s-0.5089-2.3361-1.5235-3.0279
		c-1.0178-0.6902-2.4713-1.0369-4.3606-1.0369h-4.7868v-3.8104l7.4108-7.1563h-11.8986l-0.0414-5.4181h20.2795v4.0219
		l-8.5526,8.0437l1.5267,0.2131C138.0873,12.6419,140.1547,13.5165,141.6941,14.9271z"/>
</g>
</svg>
